<svg width="174" height="132" viewBox="0 0 174 132" fill="none" xmlns="http://www.w3.org/2000/svg">
<path d="M103.075 26.8806L91.6879 54.0847C91.3573 55.0533 90.2891 55.4327 89.2973 55.0152L63.0222 43.7726C62.0536 43.442 61.6645 42.3764 62.082 41.3845L77.0068 6.59636C77.3373 5.6278 78.4029 5.23874 79.3948 5.65626L98.5039 13.8393L103.075 26.8806Z" fill="white" stroke="#65B5F6"/>
<path d="M98.4018 14.6114L95.5289 21.5538C95.0998 22.5966 95.6689 23.7334 96.5793 24.134L102.762 26.9016" fill="#65B5F6"/>
<path fill-rule="evenodd" clip-rule="evenodd" d="M92.779 18.0132L80.0891 12.6136C79.8564 12.4793 79.697 12.2321 79.7725 11.8185C79.9068 11.5857 80.1611 11.4141 80.5677 11.5019L93.2576 16.9015C93.4903 17.0358 93.6593 17.2804 93.5742 17.6966C93.3665 18.0421 93.096 18.1146 92.779 18.0132ZM83.6993 17.7026L78.9235 15.5659C78.6908 15.4315 78.5288 15.1747 78.6166 14.7681C78.7154 14.4414 78.9955 14.3664 79.4117 14.4515L84.1901 16.598C84.4228 16.7323 84.5822 16.9795 84.497 17.3957C84.299 17.7386 83.932 17.837 83.6993 17.7026ZM90.0905 27.3367L96.6906 30.0613C97.4756 30.4411 97.7567 31.1422 97.5227 32.0849L92.588 43.5736C92.3048 44.3327 91.4131 44.6752 90.7479 44.3565L70.859 35.813C70.1842 35.4969 69.854 34.6122 70.1605 33.94L75.0951 22.4514C75.3879 21.6896 76.2726 21.3594 76.9448 21.6658L83.2415 24.3786L90.0905 27.3367ZM80.3931 31.985L79.336 34.608L85.4025 37.196L86.4571 34.5634L80.3931 31.985ZM85.1194 37.9552L84.1 40.3713L78.036 37.7929L79.0554 35.3768L85.1194 37.9552ZM86.8601 33.8653L87.9173 31.2423L81.8437 28.6665L80.7865 31.2895L86.8601 33.8653ZM82.1339 27.8951L83.3649 25.2255L89.4385 27.8013L88.384 30.4339L82.1339 27.8951ZM87.6193 34.1484L94.3581 37.0429L95.4126 34.4103L88.6764 31.5254L87.6193 34.1484ZM80.0041 30.9194L73.498 28.1592L74.5551 25.5362L81.0586 28.2867L80.0041 30.9194ZM79.634 31.7018L73.1182 28.9442L72.0733 31.5743L78.5768 34.3248L79.634 31.7018ZM87.3387 34.9172L94.0749 37.8021L93.0178 40.4251L86.2816 37.5402L87.3387 34.9172ZM95.806 33.7148L96.7143 31.6182C96.8254 31.2986 96.727 30.9316 96.3108 30.8464L90.127 28.2069L89.0698 30.8299L95.806 33.7148ZM76.5159 22.2674L82.4929 24.869L81.4384 27.5017L74.9323 24.7415L75.831 22.6476C75.942 22.3279 76.3091 22.2296 76.5159 22.2674ZM71.6936 32.3593L70.8963 34.1362C70.762 34.3689 70.8836 34.8229 71.1163 34.9573L77.1803 37.5357L78.1971 35.1098L71.6936 32.3593ZM91.0456 43.3036L84.8617 40.6642L85.8785 38.2383L92.6147 41.1232L91.7564 43.02C91.6686 43.4265 91.3016 43.5249 91.0456 43.3036Z" fill="#65B5F6"/>
<path d="M147.381 57.498H45.6707C43.5807 57.498 41.7507 59.328 41.7507 61.428V127.068C41.7507 129.158 43.5807 128.378 45.6707 128.378H147.121C149.211 128.378 151.041 129.158 151.041 127.068V61.428C151.301 59.328 149.471 57.498 147.381 57.498Z" fill="white" stroke="#65B5F6" stroke-linejoin="round"/>
<path d="M143.961 61.3179H49.3106C47.3706 61.3179 45.6606 62.9579 45.6606 64.8279V123.598C45.6606 125.468 47.3706 124.768 49.3106 124.768H143.721C145.671 124.768 147.371 125.468 147.371 123.598V64.8279C147.611 62.9579 145.911 61.3179 143.961 61.3179Z" fill="white" stroke="#65B5F6"/>
<path d="M166.471 124.718V126.808C166.471 129.158 164.371 131.258 162.021 131.258H31.0308C28.6808 131.258 26.5908 129.158 26.5908 126.808V124.718H166.471Z" fill="white" stroke="#65B5F6" stroke-linejoin="round"/>
<path d="M108.691 124.718V125.498C108.691 126.808 107.641 128.118 106.071 128.118H86.7206C85.4206 128.118 84.1106 127.068 84.1106 125.498V124.718H108.691Z" fill="white" stroke="#65B5F6" stroke-linejoin="round"/>
<path d="M106.851 91.7679H98.2306V83.1279C98.2306 82.0879 97.4406 81.2979 96.4006 81.2979C95.3506 81.2979 94.5706 82.0879 94.5706 83.1279V91.7679H85.9406C84.8906 91.7679 84.1106 92.5479 84.1106 93.5979C84.1106 94.6379 84.8906 95.4279 85.9406 95.4279H94.5706V104.058C94.5706 105.098 95.3506 105.888 96.4006 105.888C97.4406 105.888 98.2306 105.098 98.2306 104.058V95.4279H106.851C107.901 95.4279 108.691 94.6379 108.691 93.5979C108.691 92.5479 107.901 91.7679 106.851 91.7679Z" fill="#65B5F6"/>
<path d="M166.211 90.8577L137.291 106.508C135.621 107.408 133.541 106.798 132.631 105.128L117.681 77.4277C116.791 75.7577 117.391 73.6777 119.071 72.7677L147.991 57.1077C149.661 56.2077 151.741 56.8177 152.651 58.4977L167.621 86.1877C168.511 87.8677 167.881 89.9577 166.211 90.8577Z" fill="#E5F2FD" stroke="#65B5F6"/>
<path d="M145.491 85.5081L136.201 90.5381L137.991 82.7681L145.491 85.5081Z" fill="#B0B7C4"/>
<path d="M153.161 81.348L139.801 88.598L142.381 77.418L153.161 81.348Z" fill="#CED6E2"/>
<path d="M134.651 81.6876C135.751 81.8076 136.731 81.0176 136.861 79.9276C136.981 78.8276 136.191 77.8476 135.101 77.7176C134.001 77.5976 133.021 78.3876 132.901 79.4876C132.771 80.5776 133.561 81.5676 134.651 81.6876Z" fill="#B0B7C4"/>
<path d="M169.381 96.818L136.501 97.468C134.601 97.498 133.041 96.008 132.991 94.098L132.411 62.638C132.381 60.738 133.871 59.168 135.781 59.118L168.661 58.468C170.561 58.448 172.131 59.928 172.171 61.838L172.771 93.318C172.801 95.218 171.281 96.788 169.381 96.818Z" fill="white" stroke="#65B5F6"/>
<path d="M153.421 82.568L142.861 82.768L148.011 76.688L153.421 82.568Z" fill="#65B5F6"/>
<path d="M162.141 82.3878L146.951 82.6978L154.371 73.9478L162.141 82.3878Z" fill="#E5F2FD"/>
<path d="M145.541 74.198C146.461 74.808 147.701 74.558 148.311 73.638C148.921 72.728 148.671 71.488 147.751 70.878C146.841 70.268 145.601 70.518 144.991 71.438C144.381 72.348 144.631 73.588 145.541 74.198Z" fill="#65B5F6"/>
<path d="M171.831 97.8279C172.571 98.2779 172.431 99.3879 171.611 99.6379L168.031 100.738C167.391 100.938 167.121 101.698 167.501 102.258L171.741 108.528C172.051 108.978 171.931 109.608 171.471 109.908L168.601 111.858C168.141 112.158 167.521 112.038 167.211 111.588L162.971 105.318C162.591 104.758 161.791 104.728 161.371 105.248L159.011 108.158C158.471 108.818 157.391 108.538 157.251 107.688L154.021 88.8279C153.881 87.9879 154.801 87.3579 155.531 87.8079L171.831 97.8279Z" fill="#E5F2FD" stroke="#65B5F6" stroke-linejoin="round"/>
<path d="M30.7307 63.2776L49.1907 84.5776C49.8107 85.3076 49.6807 86.3976 48.9307 87.0376L27.4807 105.228C26.7307 105.868 25.6007 105.788 25.0107 105.088L1.6227 77.4076C1.0007 76.6776 1.1357 75.5876 1.8867 74.9476L17.4307 61.7676L30.7307 63.2776Z" fill="white" stroke="#65B5F6"/>
<path d="M17.3906 61.5376L22.4806 67.5376C23.1906 68.3876 24.5106 68.4276 25.3506 67.7176L30.6806 63.1976" fill="#65B5F6"/>
<path fill-rule="evenodd" clip-rule="evenodd" d="M13.3218 67.0375L14.6188 65.9375L15.3728 66.8275L14.0768 67.9275L13.3218 67.0375ZM11.2588 67.2475L12.5548 66.1575L13.3098 67.0475L12.0128 68.1475L11.2588 67.2475ZM14.0538 67.9275L12.7568 69.0175L13.5118 69.9175L14.8078 68.8175L14.0538 67.9275ZM14.8208 68.8075L16.1208 67.7075L16.8708 68.5975L15.5708 69.6975L14.8208 68.8075ZM15.5608 69.7075L14.2658 70.8075L15.0208 71.6975L16.3208 70.5975L15.5608 69.7075ZM16.3308 70.5875L17.6308 69.4875L18.3808 70.3775L17.0808 71.4775L16.3308 70.5875ZM17.0608 71.4775L15.7608 72.5775L16.5208 73.4675L17.8108 72.3675L17.0608 71.4775ZM17.8308 72.3575L19.1208 71.2575L19.8808 72.1475L18.5808 73.2475L17.8308 72.3575ZM18.5708 73.2575L17.2708 74.3575L18.0308 75.2475L19.3208 74.1475L18.5708 73.2575ZM19.3408 74.1375L20.6308 73.0375L21.3908 73.9375L20.0908 75.0275L19.3408 74.1375ZM20.0708 75.0275L18.7708 76.1275L19.5308 77.0175L20.8208 75.9175L20.0708 75.0275ZM20.8308 75.9075L22.1308 74.8075L22.8908 75.7075L21.5908 76.7975L20.8308 75.9075ZM21.5808 76.8075L20.2808 77.9075L21.0308 78.7975L22.3308 77.6975L21.5808 76.8075ZM22.3308 77.6775L23.6308 76.5775L24.3808 77.4675L23.0908 78.5675L22.3308 77.6775ZM23.0708 78.5775L21.7808 79.6775L22.5308 80.5675L23.8308 79.4675L23.0708 78.5775ZM23.8408 79.4575L25.1408 78.3675L25.8908 79.2575L29.4208 83.4175L26.8208 85.6275L23.2908 81.4575L25.8771 79.269L24.6008 80.3475L23.8408 79.4575ZM26.8808 84.9075L28.7008 83.3675L27.6808 82.1575L25.8608 83.7075L26.8808 84.9075ZM29.1108 92.4675L29.1708 94.6175L29.6508 95.1775L32.4808 92.7875L31.8008 91.9775L30.2408 93.2975L30.2308 93.2875C30.2708 92.9575 30.2708 92.6175 30.2608 92.2475L30.2008 90.2175L29.6908 89.6075L27.0308 91.8575L27.7008 92.6475L29.1308 91.4475L29.1408 91.4575C29.127 91.7066 29.1227 91.9175 29.1181 92.1463C29.116 92.2481 29.1139 92.3536 29.1108 92.4675ZM30.7008 88.0675C31.0208 87.7875 31.0508 87.3875 30.8108 87.1075C30.5708 86.8175 30.1708 86.7875 29.8408 87.0475C29.5108 87.3275 29.4908 87.7375 29.7408 88.0175C29.9808 88.2875 30.3808 88.3375 30.7008 88.0675ZM30.5508 88.8875L33.2808 92.1075L34.2808 91.2575L31.5508 88.0375L30.5508 88.8875ZM33.2708 88.4275C32.9108 88.0075 32.5908 87.6475 32.3308 87.3675L33.2008 86.6375L33.6308 87.0475L33.6508 87.0375C33.6008 86.4975 33.8108 85.9975 34.2808 85.5875C34.9908 84.9975 36.1508 85.0675 37.0208 86.0975C38.0208 87.2775 37.7508 88.4575 37.0208 89.0775C36.6308 89.4075 36.1908 89.4975 35.8608 89.4275L35.8508 89.4375L37.2108 91.0375L36.2108 91.8975L33.2708 88.4275ZM34.9308 88.3475C34.9908 88.4175 35.0708 88.4875 35.1308 88.5375C35.4308 88.7575 35.8408 88.7575 36.1308 88.5075C36.5708 88.1375 36.5108 87.5575 36.0508 87.0075C35.6108 86.4975 35.0508 86.2975 34.6008 86.6775C34.3108 86.9275 34.2408 87.3575 34.4308 87.7075C34.4608 87.7675 34.5008 87.8375 34.5608 87.9075L34.9308 88.3475Z" fill="#65B5F6"/>
</svg>
