<svg width="72" height="71" viewBox="0 0 72 71" fill="none" xmlns="http://www.w3.org/2000/svg">
<path d="M36 70.5C55.5995 70.5 71.5 54.835 71.5 35.4916C71.5 16.1648 55.5993 0.5 36 0.5C16.4007 0.5 0.5 16.1648 0.5 35.4916C0.5 54.835 16.4005 70.5 36 70.5Z" fill="white"/>
<path d="M36 70.5C55.5995 70.5 71.5 54.835 71.5 35.4916C71.5 16.1648 55.5993 0.5 36 0.5C16.4007 0.5 0.5 16.1648 0.5 35.4916C0.5 54.835 16.4005 70.5 36 70.5Z" fill="#E22134" fill-opacity="0.1"/>
<path d="M36 70.5C55.5995 70.5 71.5 54.835 71.5 35.4916C71.5 16.1648 55.5993 0.5 36 0.5C16.4007 0.5 0.5 16.1648 0.5 35.4916C0.5 54.835 16.4005 70.5 36 70.5Z" stroke="#E22134"/>
<path d="M32.25 42.75C32.25 43.1719 31.875 43.5 31.5 43.5C31.0781 43.5 30.75 43.1719 30.75 42.75V32.25C30.75 31.875 31.0781 31.5 31.5 31.5C31.875 31.5 32.25 31.875 32.25 32.25V42.75ZM36.75 42.75C36.75 43.1719 36.375 43.5 36 43.5C35.5781 43.5 35.25 43.1719 35.25 42.75V32.25C35.25 31.875 35.5781 31.5 36 31.5C36.375 31.5 36.75 31.875 36.75 32.25V42.75ZM41.25 42.75C41.25 43.1719 40.875 43.5 40.5 43.5C40.0781 43.5 39.75 43.1719 39.75 42.75V32.25C39.75 31.875 40.0781 31.5 40.5 31.5C40.875 31.5 41.25 31.875 41.25 32.25V42.75ZM40.0312 25.0781L41.25 27H45.75C46.125 27 46.5 27.375 46.5 27.75C46.5 28.1719 46.125 28.5 45.75 28.5H45V44.25C45 46.3594 43.3125 48 41.25 48H30.75C28.6406 48 27 46.3594 27 44.25V28.5H26.25C25.8281 28.5 25.5 28.1719 25.5 27.75C25.5 27.375 25.8281 27 26.25 27H30.7031L31.9219 25.0781C32.2969 24.4219 33.0469 24 33.7969 24H38.1562C38.9062 24 39.6562 24.4219 40.0312 25.0781ZM32.4375 27H39.5156L38.7656 25.875C38.625 25.6406 38.3906 25.5 38.1562 25.5H33.7969C33.5625 25.5 33.3281 25.6406 33.1875 25.875L32.4375 27ZM28.5 44.25C28.5 45.5156 29.4844 46.5 30.75 46.5H41.25C42.4688 46.5 43.5 45.5156 43.5 44.25V28.5H28.5V44.25Z" fill="#E22134"/>
</svg>
