<svg width="30" height="24" viewBox="0 0 30 24" fill="none" xmlns="http://www.w3.org/2000/svg">
<path d="M14.4375 7.73438C14.7188 7.45312 15.2344 7.45312 15.5156 7.73438L19.2656 11.4844C19.5469 11.7656 19.5469 12.2812 19.2656 12.5625C18.9844 12.8438 18.4688 12.8438 18.1875 12.5625L15.75 10.0781V17.25C15.75 17.6719 15.375 18 15 18C14.5781 18 14.25 17.6719 14.25 17.25V10.0781L11.7656 12.5625C11.4844 12.8438 10.9688 12.8438 10.6875 12.5625C10.4062 12.2812 10.4062 11.7656 10.6875 11.4844L14.4375 7.73438ZM12.75 1.5C15.5156 1.5 18 2.90625 19.5 5.01562C20.1562 4.6875 20.9062 4.5 21.75 4.5C24.6094 4.5 27 6.89062 27 9.75C27 10.2656 26.9062 10.7344 26.7656 11.2031C28.6875 12.2344 30 14.2031 30 16.5C30 19.8281 27.2812 22.5 24 22.5H6.75C3 22.5 0 19.5 0 15.75C0 12.8438 1.875 10.3125 4.5 9.42188C4.6875 5.01562 8.29688 1.5 12.75 1.5ZM12.75 3C9.09375 3 6.14062 5.85938 6 9.46875C5.95312 10.0781 5.57812 10.5938 4.96875 10.8281C2.95312 11.5312 1.5 13.5 1.5 15.75C1.5 18.6562 3.84375 21 6.75 21H24C26.4844 21 28.5 18.9844 28.5 16.5C28.5 14.8125 27.5156 13.3125 26.0625 12.5625C25.4531 12.1875 25.125 11.4844 25.3125 10.7812C25.4062 10.4531 25.5 10.125 25.5 9.75C25.5 7.6875 23.8125 6 21.75 6C21.1406 6 20.625 6.14062 20.1094 6.375C19.4531 6.70312 18.6562 6.46875 18.2344 5.90625C17.0156 4.17188 15 3 12.75 3Z" fill="#2195F2"/>
</svg>
