<svg width="77" height="56" viewBox="0 0 77 56" fill="none" xmlns="http://www.w3.org/2000/svg">
<path d="M31.0391 5.44751L29.9685 2.44758C29.7543 1.6976 29.0049 1.26904 28.2554 1.26904H9.30526C7.69931 1.26904 6.41455 2.44759 6.41455 4.16183V46.4822V39.5181H70.8666V9.51885C70.8666 7.91174 69.6889 6.62606 67.9759 6.62606H32.645C32.1097 6.62606 31.3603 6.1975 31.0391 5.44751Z" fill="#E5F2FD" stroke="#65B5F6" stroke-miterlimit="10"/>
<path d="M41.9406 25.1973H32.9275H30.5556H23.44C23.2028 25.1973 22.847 25.4346 22.847 25.9093C22.847 26.2654 23.0842 26.6214 23.44 26.6214H30.5556H32.9275H41.9406C42.1778 26.6214 42.5336 26.3841 42.5336 25.9093C42.5336 25.4346 42.2964 25.1973 41.9406 25.1973Z" fill="#D6DCE8"/>
<path d="M76.0804 18.6252L70.8343 51.303C70.5131 53.2316 68.8001 54.7315 66.873 54.7315H9.27295C7.23875 54.7315 5.6328 53.3387 5.31161 51.303L0.922018 24.518C0.600829 22.4823 2.09971 20.5538 4.24098 20.5538H36.6811C37.6447 20.5538 38.5012 19.9109 38.8224 18.9467L39.786 16.0539C40.1072 15.0896 40.9637 14.4468 41.9272 14.4468H72.8685C74.7956 14.6611 76.4016 16.4824 76.0804 18.6252Z" fill="white" stroke="#65B5F6" stroke-miterlimit="10"/>
</svg>
